<mxfile host="Electron" modified="2023-12-31T14:33:39.807Z" agent="Mozilla/5.0 (X11; Linux x86_64) AppleWebKit/537.36 (KHTML, like Gecko) draw.io/22.1.16 Chrome/120.0.6099.109 Electron/28.1.0 Safari/537.36" etag="L2Km0vxPIPJZoFcioWh3" version="22.1.16" type="device">
  <diagram name="Page-1" id="CpT_m-j7Am7sjx0DqRG0">
    <mxGraphModel dx="1364" dy="843" grid="1" gridSize="10" guides="1" tooltips="1" connect="1" arrows="1" fold="1" page="1" pageScale="1" pageWidth="850" pageHeight="1100" math="0" shadow="0">
      <root>
        <mxCell id="0" />
        <mxCell id="1" parent="0" />
        <mxCell id="NEY-SCTF0jtiZKWW0wOI-46" value="Amirkabir_DT_Scene (Sample Scene)" style="rounded=1;whiteSpace=wrap;html=1;labelPosition=center;verticalLabelPosition=top;align=center;verticalAlign=bottom;fontStyle=1;fontSize=17;glass=0;arcSize=5;fillColor=#f5f5f5;fontColor=#000000;strokeColor=#666666;strokeWidth=1;" parent="1" vertex="1">
          <mxGeometry x="70" y="230" width="730" height="280" as="geometry" />
        </mxCell>
        <mxCell id="NEY-SCTF0jtiZKWW0wOI-37" value="&lt;div style=&quot;font-size: 15px;&quot;&gt;Environment (Amirkabir)&lt;/div&gt;" style="rounded=1;whiteSpace=wrap;html=1;labelPosition=center;verticalLabelPosition=top;align=center;verticalAlign=bottom;labelBackgroundColor=none;labelBorderColor=none;horizontal=1;fontStyle=1;fontSize=15;glass=0;arcSize=5;strokeWidth=1;strokeColor=#000000;fillColor=#fff2cc;" parent="1" vertex="1">
          <mxGeometry x="90" y="260" width="690" height="160" as="geometry" />
        </mxCell>
        <mxCell id="_86dnVmTTonqfILlxaSy-3" value="" style="edgeStyle=orthogonalEdgeStyle;rounded=0;orthogonalLoop=1;jettySize=auto;html=1;" parent="1" target="NEY-SCTF0jtiZKWW0wOI-3" edge="1">
          <mxGeometry relative="1" as="geometry">
            <mxPoint x="730" y="440" as="sourcePoint" />
          </mxGeometry>
        </mxCell>
        <mxCell id="_86dnVmTTonqfILlxaSy-2" value="" style="edgeStyle=orthogonalEdgeStyle;rounded=0;orthogonalLoop=1;jettySize=auto;html=1;" parent="1" target="NEY-SCTF0jtiZKWW0wOI-8" edge="1">
          <mxGeometry relative="1" as="geometry">
            <mxPoint x="870" y="440" as="sourcePoint" />
          </mxGeometry>
        </mxCell>
        <mxCell id="NEY-SCTF0jtiZKWW0wOI-26" value="NPCVehicles" style="rounded=1;whiteSpace=wrap;html=1;fillColor=#e1d5e7;strokeColor=#9673a6;" parent="1" vertex="1">
          <mxGeometry x="625" y="360" width="110" height="40" as="geometry" />
        </mxCell>
        <mxCell id="NEY-SCTF0jtiZKWW0wOI-31" value="&lt;div&gt;NPCPedestrians&lt;/div&gt;" style="rounded=1;whiteSpace=wrap;html=1;fillColor=#e1d5e7;strokeColor=#9673a6;" parent="1" vertex="1">
          <mxGeometry x="115" y="360" width="110" height="40" as="geometry" />
        </mxCell>
        <mxCell id="NEY-SCTF0jtiZKWW0wOI-33" value="Directional Light" style="rounded=0;whiteSpace=wrap;html=1;" parent="1" vertex="1">
          <mxGeometry x="110" y="280" width="110" height="40" as="geometry" />
        </mxCell>
        <mxCell id="NEY-SCTF0jtiZKWW0wOI-34" value="&lt;div&gt;Volume&lt;/div&gt;" style="rounded=0;whiteSpace=wrap;html=1;" parent="1" vertex="1">
          <mxGeometry x="250" y="280" width="110" height="40" as="geometry" />
        </mxCell>
        <mxCell id="NEY-SCTF0jtiZKWW0wOI-43" value="MainCamera" style="rounded=0;whiteSpace=wrap;html=1;" parent="1" vertex="1">
          <mxGeometry x="650" y="440" width="110" height="40" as="geometry" />
        </mxCell>
        <mxCell id="NEY-SCTF0jtiZKWW0wOI-44" value="Canvas" style="rounded=1;whiteSpace=wrap;html=1;" parent="1" vertex="1">
          <mxGeometry x="110" y="440" width="110" height="40" as="geometry" />
        </mxCell>
        <mxCell id="XNUUSjVPmP6X1J_Ixo6b-6" style="edgeStyle=orthogonalEdgeStyle;rounded=0;orthogonalLoop=1;jettySize=auto;html=1;exitX=1;exitY=0.5;exitDx=0;exitDy=0;entryX=0;entryY=0.5;entryDx=0;entryDy=0;" edge="1" parent="1" source="XNUUSjVPmP6X1J_Ixo6b-5" target="NEY-SCTF0jtiZKWW0wOI-26">
          <mxGeometry relative="1" as="geometry" />
        </mxCell>
        <mxCell id="XNUUSjVPmP6X1J_Ixo6b-7" style="edgeStyle=orthogonalEdgeStyle;rounded=0;orthogonalLoop=1;jettySize=auto;html=1;exitX=0;exitY=0.5;exitDx=0;exitDy=0;entryX=1;entryY=0.5;entryDx=0;entryDy=0;" edge="1" parent="1" source="XNUUSjVPmP6X1J_Ixo6b-5" target="NEY-SCTF0jtiZKWW0wOI-31">
          <mxGeometry relative="1" as="geometry" />
        </mxCell>
        <mxCell id="XNUUSjVPmP6X1J_Ixo6b-5" value="&lt;div&gt;SpawnPoint&lt;/div&gt;" style="rounded=1;whiteSpace=wrap;html=1;fillColor=#dae8fc;strokeColor=#6c8ebf;" vertex="1" parent="1">
          <mxGeometry x="375" y="360" width="110" height="40" as="geometry" />
        </mxCell>
        <mxCell id="XNUUSjVPmP6X1J_Ixo6b-9" style="edgeStyle=orthogonalEdgeStyle;rounded=0;orthogonalLoop=1;jettySize=auto;html=1;exitX=0;exitY=0.5;exitDx=0;exitDy=0;entryX=0.5;entryY=0;entryDx=0;entryDy=0;" edge="1" parent="1" source="XNUUSjVPmP6X1J_Ixo6b-8" target="XNUUSjVPmP6X1J_Ixo6b-5">
          <mxGeometry relative="1" as="geometry" />
        </mxCell>
        <mxCell id="XNUUSjVPmP6X1J_Ixo6b-8" value="&lt;div&gt;DetectionSubscriber&lt;/div&gt;" style="rounded=1;whiteSpace=wrap;html=1;fillColor=#f8cecc;strokeColor=#b85450;" vertex="1" parent="1">
          <mxGeometry x="615" y="280" width="120" height="40" as="geometry" />
        </mxCell>
      </root>
    </mxGraphModel>
  </diagram>
</mxfile>
